<svg xmlns="http://www.w3.org/2000/svg" viewBox="0 0 512 512">
  <defs>
    <!-- Rich outer halo - glows further -->
    <radialGradient id="h" cx="50%" cy="50%" r="50%">
      <stop offset="0%" stop-color="#fbbf24" stop-opacity="0.7"/>
      <stop offset="30%" stop-color="#f59e0b" stop-opacity="0.4"/>
      <stop offset="60%" stop-color="#d97706" stop-opacity="0.15"/>
      <stop offset="100%" stop-color="#000" stop-opacity="0"/>
    </radialGradient>
    <!-- Corona ring - bright edge glow -->
    <radialGradient id="corona" cx="50%" cy="50%" r="50%">
      <stop offset="70%" stop-color="#fcd34d"/>
      <stop offset="85%" stop-color="#fbbf24"/>
      <stop offset="100%" stop-color="#f59e0b" stop-opacity="0.5"/>
    </radialGradient>
    <!-- Main core - warm to hot -->
    <radialGradient id="c" cx="50%" cy="50%" r="50%">
      <stop offset="0%" stop-color="#fff"/>
      <stop offset="25%" stop-color="#fef3c7"/>
      <stop offset="55%" stop-color="#fcd34d"/>
      <stop offset="100%" stop-color="#f59e0b"/>
    </radialGradient>
    <!-- Inner depth - adds dimension -->
    <radialGradient id="inner" cx="40%" cy="40%" r="60%">
      <stop offset="0%" stop-color="#fff"/>
      <stop offset="50%" stop-color="#fef9c3"/>
      <stop offset="100%" stop-color="#fde68a"/>
    </radialGradient>
    <!-- Ray gradient - brighter -->
    <linearGradient id="r" x1="0%" y1="0%" x2="0%" y2="100%">
      <stop offset="0%" stop-color="#fbbf24" stop-opacity="0"/>
      <stop offset="40%" stop-color="#fcd34d" stop-opacity="0.9"/>
      <stop offset="60%" stop-color="#fbbf24" stop-opacity="0.9"/>
      <stop offset="100%" stop-color="#f59e0b" stop-opacity="0"/>
    </linearGradient>
  </defs>
  
  <!-- Background -->
  <rect width="512" height="512" fill="#0a0a0f" rx="96"/>
  
  <!-- Scaled content to fit within rounded corners (75%) -->
  <g transform="translate(256,256) scale(0.75) translate(-256,-256)">
    <!-- Outer halo - rich glow -->
    <circle cx="256" cy="256" r="224" fill="url(#h)"/>
    
    <!-- Rays - thicker, more visible -->
    <g opacity="0.85">
      <ellipse cx="256" cy="64" rx="19" ry="128" fill="url(#r)" transform="rotate(0 256 256)"/>
      <ellipse cx="256" cy="64" rx="19" ry="128" fill="url(#r)" transform="rotate(45 256 256)"/>
      <ellipse cx="256" cy="64" rx="19" ry="128" fill="url(#r)" transform="rotate(90 256 256)"/>
      <ellipse cx="256" cy="64" rx="19" ry="128" fill="url(#r)" transform="rotate(135 256 256)"/>
      <ellipse cx="256" cy="64" rx="19" ry="128" fill="url(#r)" transform="rotate(180 256 256)"/>
      <ellipse cx="256" cy="64" rx="19" ry="128" fill="url(#r)" transform="rotate(225 256 256)"/>
      <ellipse cx="256" cy="64" rx="19" ry="128" fill="url(#r)" transform="rotate(270 256 256)"/>
      <ellipse cx="256" cy="64" rx="19" ry="128" fill="url(#r)" transform="rotate(315 256 256)"/>
    </g>
    
    <!-- Corona ring - bright edge -->
    <circle cx="256" cy="256" r="112" fill="url(#corona)"/>
    
    <!-- Main core -->
    <circle cx="256" cy="256" r="88" fill="url(#c)"/>
    
    <!-- Inner depth layer -->
    <circle cx="256" cy="256" r="56" fill="url(#inner)"/>
    
    <!-- Hot center -->
    <circle cx="256" cy="256" r="32" fill="#fff"/>
  </g>
</svg>
