<svg width="512" height="512" viewBox="0 0 512 512" fill="none" xmlns="http://www.w3.org/2000/svg">
  <!-- Maskable icons need extra padding - content should be in safe zone (center 80%) -->
  <rect width="512" height="512" fill="#0a0a0f"/>
  <rect x="64" y="64" width="384" height="384" rx="64" fill="url(#gradient)"/>
  <path transform="translate(51.2, 51.2) scale(0.8)" d="M367.6 229.02C372.77 195.97 346.33 178.4 310.15 166.6L322.23 117.92L290.99 110.09L279.27 157.3C271.23 155.25 262.97 153.27 254.78 151.31L266.56 103.7L235.36 95.87L223.26 144.55C216.34 143.02 209.56 141.5 203 139.87L203.03 139.73L160.03 128.35L151.97 162.44C151.97 162.44 175.41 167.39 174.97 167.68C187.38 170.62 189.68 178.73 189.34 185.16L175.61 242.02C176.43 242.22 177.49 242.51 178.65 242.99C177.68 242.75 176.63 242.49 175.54 242.23L156.61 318.84C155.02 322.62 151.12 328.2 141.45 325.89C141.75 326.31 118.32 319.61 118.32 319.61L103.26 355.88L144.6 366.26C151.99 368.18 159.22 370.2 166.35 372.08L154.16 421.16L185.37 428.99L197.47 380.26C205.81 382.59 213.89 384.72 221.78 386.72L209.72 435.12L240.96 442.94L253.16 393.94C302.86 402.85 340.59 399.27 356.32 354.3C369.12 318.26 356.4 297.53 330.32 284.29C349.27 279.58 363.56 267.07 367.6 229.02ZM297.63 330.22C288.56 369.33 233.2 347.37 213.52 342.38L229.54 277.33C249.22 282.36 307.08 289.55 297.63 330.22ZM306.71 228.43C298.4 264.32 252.01 244.86 235.64 240.67L250.19 179.36C266.55 183.55 315.33 190.51 306.71 228.43Z" fill="#f7931a"/>
  <defs>
    <linearGradient id="gradient" x1="64" y1="64" x2="448" y2="448" gradientUnits="userSpaceOnUse">
      <stop stop-color="#1a1a28"/>
      <stop offset="1" stop-color="#0f0f18"/>
    </linearGradient>
  </defs>
</svg>
