<svg xmlns="http://www.w3.org/2000/svg" viewBox="0 0 512 512">
  <defs>
    <!-- Core glow gradient -->
    <radialGradient id="core" cx="50%" cy="50%" r="50%">
      <stop offset="0%" stop-color="#ffffff"/>
      <stop offset="15%" stop-color="#fffbeb"/>
      <stop offset="40%" stop-color="#fcd34d"/>
      <stop offset="70%" stop-color="#d4a574"/>
      <stop offset="100%" stop-color="#92400e"/>
    </radialGradient>
    
    <!-- Outer halo -->
    <radialGradient id="halo" cx="50%" cy="50%" r="50%">
      <stop offset="0%" stop-color="#fcd34d" stop-opacity="0.5"/>
      <stop offset="50%" stop-color="#d4a574" stop-opacity="0.2"/>
      <stop offset="100%" stop-color="#000" stop-opacity="0"/>
    </radialGradient>
    
    <!-- Ray gradient -->
    <linearGradient id="ray" x1="0%" y1="0%" x2="0%" y2="100%">
      <stop offset="0%" stop-color="#fcd34d" stop-opacity="0"/>
      <stop offset="40%" stop-color="#fcd34d" stop-opacity="0.7"/>
      <stop offset="100%" stop-color="#d4a574" stop-opacity="0"/>
    </linearGradient>
    
    <!-- Soft blur -->
    <filter id="softBlur" x="-50%" y="-50%" width="200%" height="200%">
      <feGaussianBlur in="SourceGraphic" stdDeviation="8"/>
    </filter>
    
    <filter id="coreGlow" x="-50%" y="-50%" width="200%" height="200%">
      <feGaussianBlur in="SourceGraphic" stdDeviation="6"/>
    </filter>
  </defs>
  
  <!-- Background -->
  <rect width="512" height="512" fill="#0a0a0f" rx="90"/>
  
  <!-- Ambient halo -->
  <circle cx="256" cy="256" r="180" fill="url(#halo)" filter="url(#softBlur)"/>
  
  <!-- Light rays - larger and more visible -->
  <g opacity="0.8">
    <ellipse cx="256" cy="120" rx="4" ry="100" fill="url(#ray)" transform="rotate(0 256 256)"/>
    <ellipse cx="256" cy="120" rx="4" ry="100" fill="url(#ray)" transform="rotate(45 256 256)"/>
    <ellipse cx="256" cy="120" rx="4" ry="100" fill="url(#ray)" transform="rotate(90 256 256)"/>
    <ellipse cx="256" cy="120" rx="4" ry="100" fill="url(#ray)" transform="rotate(135 256 256)"/>
    <ellipse cx="256" cy="120" rx="4" ry="100" fill="url(#ray)" transform="rotate(180 256 256)"/>
    <ellipse cx="256" cy="120" rx="4" ry="100" fill="url(#ray)" transform="rotate(225 256 256)"/>
    <ellipse cx="256" cy="120" rx="4" ry="100" fill="url(#ray)" transform="rotate(270 256 256)"/>
    <ellipse cx="256" cy="120" rx="4" ry="100" fill="url(#ray)" transform="rotate(315 256 256)"/>
  </g>
  
  <!-- Core glow haze -->
  <circle cx="256" cy="256" r="80" fill="#fcd34d" opacity="0.4" filter="url(#coreGlow)"/>
  
  <!-- Main core - LARGER -->
  <circle cx="256" cy="256" r="55" fill="url(#core)"/>
  
  <!-- Hot center -->
  <circle cx="256" cy="256" r="22" fill="#ffffff"/>
  
  <!-- Specular highlight -->
  <circle cx="246" cy="246" r="10" fill="#ffffff" opacity="0.7"/>
</svg>
