<svg xmlns="http://www.w3.org/2000/svg" viewBox="0 0 32 32">
  <defs>
    <radialGradient id="c" cx="50%" cy="50%" r="50%">
      <stop offset="0%" stop-color="#fff"/>
      <stop offset="20%" stop-color="#fffbeb"/>
      <stop offset="50%" stop-color="#fcd34d"/>
      <stop offset="100%" stop-color="#d4a574"/>
    </radialGradient>
    <radialGradient id="h" cx="50%" cy="50%" r="50%">
      <stop offset="0%" stop-color="#fcd34d" stop-opacity="0.6"/>
      <stop offset="100%" stop-color="#000" stop-opacity="0"/>
    </radialGradient>
    <linearGradient id="r" x1="0%" y1="0%" x2="0%" y2="100%">
      <stop offset="0%" stop-color="#fcd34d" stop-opacity="0"/>
      <stop offset="50%" stop-color="#fcd34d" stop-opacity="0.8"/>
      <stop offset="100%" stop-color="#d4a574" stop-opacity="0"/>
    </linearGradient>
  </defs>
  <rect width="32" height="32" fill="#0a0a0f" rx="6"/>
  <!-- Rays -->
  <g opacity="0.7">
    <ellipse cx="16" cy="5" rx="0.8" ry="7" fill="url(#r)" transform="rotate(0 16 16)"/>
    <ellipse cx="16" cy="5" rx="0.8" ry="7" fill="url(#r)" transform="rotate(45 16 16)"/>
    <ellipse cx="16" cy="5" rx="0.8" ry="7" fill="url(#r)" transform="rotate(90 16 16)"/>
    <ellipse cx="16" cy="5" rx="0.8" ry="7" fill="url(#r)" transform="rotate(135 16 16)"/>
    <ellipse cx="16" cy="5" rx="0.8" ry="7" fill="url(#r)" transform="rotate(180 16 16)"/>
    <ellipse cx="16" cy="5" rx="0.8" ry="7" fill="url(#r)" transform="rotate(225 16 16)"/>
    <ellipse cx="16" cy="5" rx="0.8" ry="7" fill="url(#r)" transform="rotate(270 16 16)"/>
    <ellipse cx="16" cy="5" rx="0.8" ry="7" fill="url(#r)" transform="rotate(315 16 16)"/>
  </g>
  <circle cx="16" cy="16" r="9" fill="url(#h)"/>
  <circle cx="16" cy="16" r="6" fill="url(#c)"/>
  <circle cx="16" cy="16" r="2.5" fill="#fff"/>
</svg>
